# xmcd CD database file
#
# Track frame offsets:
#	150
#	13652
#	27902
#	41557
#	56655
#	73680
#	86905
#	102595
#	113087
#	131797
#	145922
#	163832
#	179557
#
# Disc length: 2640 seconds
#
# Revision: 11
# Processed by: cddbd v1.5.2PL0 Copyright (c) Steve Scherf et al.
# Submitted via: CDex 2.21
#
DISCID=c00a4e0d
DTITLE=Keb' Mo' - Keb' Mo'
DYEAR=1994
DGENRE=Blues
TTITLE0=Every Morning
TTITLE1=Tell Everybody I Know
TTITLE2=Love Blues
TTITLE3=Victims Of Comfort
TTITLE4=Angelina
TTITLE5=Anybody Seen My Girl
TTITLE6=She Just Wants To Dance
TTITLE7=Am I Wrong
TTITLE8=Come On In My Kitchen
TTITLE9=Dirty, Low Down and Bad
TTITLE10=Don't Try To Explain
TTITLE11=Kindhearted Woman Blues
TTITLE12=City Boy
EXTD=YEAR: 1994
EXTT0=
EXTT1=
EXTT2=
EXTT3=
EXTT4=
EXTT5=
EXTT6=
EXTT7=
EXTT8=
EXTT9=
EXTT10=
EXTT11=
EXTT12=
PLAYORDER=
